<svg width="94" height="120" fill="none" xmlns="http://www.w3.org/2000/svg"><path d="M72.384 105.071l17.911-19.232c-1.36-.088-3.091-.633-5.104-1.535-1.819-.814-3.894-1.92-6.152-3.233l-16.024 20.864c2.07 1.366 4.393 2.28 6.862 2.778.82.165 1.659.285 2.507.358zM33.538 55.568a.424.424 0 0 1 .845-.053l.897 13.82a.424.424 0 0 1-.845.053l-.897-13.82zM9.305 44.334a.424.424 0 0 1 .838-.11l1.615 12.206a.424.424 0 0 1-.365.474.424.424 0 0 1-.474-.365L9.305 44.334zm-2.064 51.65c-.059.219-.113.414-.149.536a28.352 28.352 0 0 0-.484 1.77c-.359 1.52-.472 2.809-.16 3.799.392 1.248 1.556 2.076 3.937 2.393 1.679.224 3.343.296 4.965.21l-8.105-8.705-.004-.002zm17.999 7.275c-1.948 1.116-4.073 1.888-6.31 2.339-2.781.56-5.732.621-8.723.222-2.197-.292-3.59-.994-4.396-2.047-.02 1.493.099 3.031.39 4.461.577 2.836 1.817 5.225 3.95 5.903.08.025.18.052.299.079 2.903.684 8.227.248 13.532-.862 2.434-.509 4.857-1.158 7.03-1.904a6.422 6.422 0 0 1-.276-.019c-2.25-.191-4.15-1.173-5.178-2.903a.691.691 0 0 1-.069-.12c-.857-1.531-.889-3.351-.245-5.151l-.004.002zm11.637 7.092c-3.06 1.783-7.83 3.328-12.623 4.331-5.477 1.145-11.023 1.584-14.114.856a4.497 4.497 0 0 1-.4-.113c-2.682-.854-4.197-3.644-4.866-6.92-.643-3.155-.505-6.788.132-9.502.086-.363.185-.721.298-1.078.136-.575.304-1.175.493-1.798l.167-.618.007-.03c.062-.23.127-.472.18-.658L.485 88.736a1.96 1.96 0 0 1-.09-.097l-.14-.15a.678.678 0 0 1-.179-.517l.95-28.815a.68.68 0 0 1 .444-.659.664.664 0 0 1 .516.021l5.429 2.19-4.402-25.78a.676.676 0 0 1 .044-.378L11.68 8.619a.675.675 0 1 1 1.251-.076l16.86 21.549a.697.697 0 0 1 .148.314l.002.01.004.024.56 3.056L44.153.66A.678.678 0 1 1 45.45.84l17.525 41.464a.676.676 0 0 1 .071.304h.002c0 .34-.035.665-.104.971l-1.558 13.968 29.723-12.07a.679.679 0 0 1 .93.653l1.256 38.152a.678.678 0 0 1-.178.516l-.19.203a2.012 2.012 0 0 1-.112.122L82.596 96.094c.252.793.47 1.55.64 2.27.113.356.211.719.297 1.082.638 2.714.776 6.347.132 9.501-.668 3.279-2.184 6.068-4.865 6.92a6.03 6.03 0 0 1-.4.113c-3.092.728-8.636.29-14.115-.855-5.04-1.053-10.057-2.71-13.085-4.611-.183 2.282-.908 4.334-1.988 5.888-1.306 1.877-3.131 3.039-5.169 3.039-2.037 0-3.863-1.162-5.168-3.039-1.105-1.59-1.839-3.702-2-6.047l.002-.004zm26.161-6.805c.692 1.857.667 3.744-.241 5.318-1.019 1.766-2.937 2.768-5.213 2.961-.07.006-.138.011-.21.015 2.216.77 4.696 1.437 7.19 1.959 5.305 1.11 10.63 1.544 13.532.862a4.41 4.41 0 0 0 .3-.08c2.13-.677 3.37-3.068 3.949-5.902.291-1.431.41-2.966.39-4.459-.805 1.05-2.197 1.753-4.398 2.045-2.99.398-5.942.337-8.724-.223-2.339-.472-4.554-1.294-6.573-2.491l-.002-.005zm18.496-6.313l-7.385 7.928c1.319.021 2.66-.06 4.012-.241 2.463-.327 3.624-1.208 3.978-2.536.258-.969.14-2.202-.199-3.645-.006-.021-.01-.044-.014-.065-.11-.46-.241-.94-.39-1.44l-.002-.001zm-30.13 11.802c.026.013.051.026.074.04 2.027 1.097 4.155 1.553 5.993 1.397 1.842-.155 3.372-.931 4.154-2.288.784-1.357.69-3.071-.098-4.747-.822-1.751-2.392-3.448-4.513-4.673l-.009-.004a.674.674 0 0 1 .06-1.192.68.68 0 0 1 .177-.146c2.12-1.223 3.687-2.92 4.509-4.674.78-1.66.88-3.362.115-4.715l-.019-.03c-.781-1.356-2.314-2.13-4.154-2.288-1.918-.161-4.152.34-6.257 1.544a.677.677 0 0 1-1.059-.61.692.692 0 0 1-.039-.231c0-2.45-.683-4.656-1.79-6.246-1.056-1.517-2.49-2.456-4.058-2.456-1.566 0-3.002.937-4.058 2.456-1.105 1.59-1.79 3.796-1.79 6.246a.677.677 0 0 1-1.067.554.728.728 0 0 1-.21-.078c-2.117-1.223-4.372-1.735-6.303-1.57-1.823.154-3.343.916-4.133 2.25a.715.715 0 0 1-.05.086c-.753 1.35-.65 3.043.126 4.698.817 1.741 2.372 3.427 4.473 4.65a.677.677 0 0 1-.008 1.22.64.64 0 0 1-.234.177 12.045 12.045 0 0 0-3.104 2.57 9.359 9.359 0 0 0-1.354 2.074c-.786 1.676-.88 3.39-.098 4.749.782 1.355 2.312 2.129 4.154 2.284 1.93.164 4.184-.346 6.299-1.567.012-.008.025-.014.04-.021a.675.675 0 0 1 .974.651.674.674 0 0 1 .042.234c0 2.45.684 4.657 1.79 6.247 1.057 1.516 2.49 2.456 4.058 2.456 1.566 0 3.002-.938 4.058-2.456 1.105-1.59 1.79-3.797 1.79-6.247a.677.677 0 0 1 1.067-.553c.071.014.143.04.21.077.08.047.157.091.237.135l.006-.003zm-6.97-16.725c1.548 0 2.95.63 3.967 1.644a5.603 5.603 0 0 1 1.643 3.971 5.609 5.609 0 0 1-5.61 5.615 5.6 5.6 0 0 1-3.968-1.644 5.601 5.601 0 0 1-1.644-3.971c0-1.55.629-2.953 1.643-3.97a5.595 5.595 0 0 1 3.968-1.645zm3.007 2.603a4.241 4.241 0 0 0-3.008-1.246 4.237 4.237 0 0 0-3.008 1.246 4.246 4.246 0 0 0-1.245 3.01c0 1.177.476 2.24 1.245 3.01a4.24 4.24 0 0 0 3.008 1.246 4.237 4.237 0 0 0 3.008-1.246 4.247 4.247 0 0 0 1.245-3.01c0-1.177-.475-2.24-1.245-3.01zm14.375 6.362l16.05-20.896a188.56 188.56 0 0 1-6.154-3.855 195.17 195.17 0 0 1-5.91-3.981l-6.744 12.015c1.72.402 3.137 1.331 3.963 2.764.009.015.017.03.023.044.994 1.758.895 3.901-.067 5.953-.84 1.793-2.351 3.524-4.372 4.847 1.31.896 2.396 1.966 3.211 3.109zm-4.194-16.927l7.07-12.596c-2.184-1.573-4.1-3.066-5.63-4.438-1.673-1.498-2.9-2.88-3.543-4.105L49 78.55c.234.263.456.546.666.846 1.132 1.625 1.874 3.8 2.01 6.212 2.015-.969 4.098-1.38 5.949-1.26h-.002zm-9.678-6.775l7.206-16.954c.017-.047.038-.09.06-.137l.11-.26a.672.672 0 0 1 .37-.363l4.277-1.736.023-.235h-.002l1.32-11.855c-.94.738-2.234 1.3-3.804 1.724-3.194.858-7.59 1.143-12.49 1.143-4.899 0-9.328-.283-12.556-1.143-1.632-.434-2.97-1.018-3.93-1.787l2.985 29.113a.604.604 0 0 1-.002.151l3.966 9.33c.622.205 1.245.463 1.86.774.173-2.303.902-4.378 1.99-5.942 1.306-1.878 3.132-3.04 5.17-3.04 1.253 0 2.426.44 3.447 1.215v.002zm-14.12 6.56l-5.008-11.78c-.522.893-1.413 1.879-2.591 2.934-1.134 1.015-2.543 2.118-4.148 3.278l4.242 7.557c1.086-1.262 2.738-1.99 4.639-2.15a10.717 10.717 0 0 1 2.865.162zm-8.329 3.29l-4.53-8.067a147.601 147.601 0 0 1-4.321 2.907 147.337 147.337 0 0 1-4.498 2.821l11.08 14.494.006.008c.421.567.857 1.034 1.257 1.336.229.172.413.279.537.296.979-.508 1.767-.961 2.182-1.233a13.33 13.33 0 0 1 2.725-2.36c-1.906-1.302-3.335-2.972-4.146-4.698-.883-1.882-1.04-3.84-.294-5.506l.002.002zM11.798 35.96l-.015-5.904a.675.675 0 1 1 1.35 0l.015 5.751a88.036 88.036 0 0 0 3.827-.572 87.526 87.526 0 0 0 3.9-.745L17.8 25.947a.676.676 0 1 1 1.272-.455l3.131 8.692c1.357-.332 2.562-.692 3.566-1.087 1.788-.705 2.87-1.468 2.855-2.311L12.56 10.256l-8.167 24.56c.204.853 1.518 1.237 3.528 1.31 1.12.042 2.431-.025 3.878-.17l-.002.004zm1.32-11.467a.675.675 0 1 1-1.35 0l-.008-3.589a.675.675 0 1 1 1.35 0l.008 3.59zm9.126 11.075a.686.686 0 0 1-.622.145c-1.369.31-2.86.593-4.423.86-3.595.61-6.873.998-9.327.908-1.27-.046-2.337-.227-3.147-.573L8.89 61.304l19.881 8.023c.166.064.309.191.384.368l.585 1.378-2.85-27.817a5.11 5.11 0 0 1-.038-.368l-.032-.306a.669.669 0 0 1 .048-.33l2.704-6.504a.636.636 0 0 1-.058-.178l-.51-2.775c-.64.59-1.576 1.11-2.744 1.57-1.125.442-2.486.842-4.014 1.205l-.002-.002zM20.14 78.284L3.38 61.739l8.124 22.156c1.396-.837 2.874-1.77 4.406-2.765a151.723 151.723 0 0 0 4.232-2.844l-.002-.002zM4.58 61.024l16.68 16.463c1.58-1.141 2.961-2.22 4.063-3.207 1.981-1.775 3.03-3.142 2.596-3.839L4.583 61.026l-.002-.003zm6.392 24.752c-1.662.963-3.193 1.775-4.538 2.377-1.375.616-2.585 1.013-3.578 1.139L16.459 103.9c.375.403 1.702.145 3.289-.38 1.247-.411 2.61-.996 3.84-1.586-.472-.373-.966-.908-1.436-1.537l-11.18-14.624v.002zm-.656-1.183L2.263 62.628l-.828 25.139.048.05c.574.506 2.16.103 4.4-.9 1.307-.585 2.804-1.38 4.433-2.324zm27.844-37.3l.71-5.548a.673.673 0 0 1 .755-.585.674.674 0 0 1 .585.755l-.7 5.475a91.47 91.47 0 0 0 5.5.149c1.98 0 3.871-.047 5.628-.16l-2.224-15.79a.678.678 0 0 1 .576-.763c.371-.05.71.207.763.576l2.237 15.874c1.949-.172 3.697-.44 5.162-.832 2.471-.665 4.1-1.674 4.463-3.18l.063-.562L46.182 6.037l1.069 7.585a.678.678 0 0 1-.577.763.678.678 0 0 1-.763-.576l-1.1-7.818-1.761 13.753a.674.674 0 1 1-1.34-.17l1.76-13.74-15.283 36.771h.012c0 1.878 1.755 3.082 4.603 3.839 1.52.404 3.337.675 5.362.847l-.004.002zm2.67-10.223a.673.673 0 0 1-.754.585.674.674 0 0 1-.585-.755l1.193-9.317a.673.673 0 0 1 .754-.585.674.674 0 0 1 .585.755L40.83 37.07zm8.066-11.744a.678.678 0 0 1-.577.763.678.678 0 0 1-.763-.576l-.62-4.399a.678.678 0 0 1 .577-.763c.37-.05.71.207.762.576l.62 4.399zm11.065 34.26l-3.509 1.425-.004.006-.06.143c-.361 1.072 1.039 2.882 3.57 5.15 1.502 1.344 3.388 2.814 5.547 4.366l22.96-22.666L61.973 58.77c-.675.274-1.34.543-2.012.818zM89.683 48.71L66.624 71.473a191.695 191.695 0 0 0 5.82 3.918 192.545 192.545 0 0 0 6.06 3.799l11.177-30.481h.002zm1.115.891L79.691 79.89c2.224 1.297 4.266 2.383 6.047 3.18 3.059 1.37 5.245 1.895 6.077 1.135l.113-.121.004-.007L90.798 49.6z" fill="#30373E"/></svg>