<svg width="93" height="120" fill="none" xmlns="http://www.w3.org/2000/svg"><path d="M47.008 87.85a.794.794 0 0 1-.292-.313L34.698 74.741l-.036-.04a1.028 1.028 0 0 0-.947-.327c-.462.072-.984.363-1.511.742a.296.296 0 0 1-.032.022l-7.105 5.246 12.53 18.382 9.272-8.003c.557-.48.918-.93 1.013-1.345.075-.331-.053-.693-.436-1.102l-.44-.468.002.002zm-24.843 20.04a.508.508 0 0 1-.693-.173.497.497 0 0 1 .174-.686l4.248-2.525a.508.508 0 0 1 .693.173.497.497 0 0 1-.174.686l-4.248 2.525zm-.694 3.042a.506.506 0 0 1-.691-.173.501.501 0 0 1 .173-.689l7.572-4.526a.505.505 0 0 1 .692.173.501.501 0 0 1-.174.689l-7.572 4.526zM79.7 5.498c-1.248.485-1.969 1.68-2.759 2.992-.608 1.008-1.25 2.073-2.19 3.02 1.477-.048 3.215-.248 4.665-.755 1.347-.47 2.419-1.198 2.664-2.303.14-.637.077-1.186-.114-1.635a2.345 2.345 0 0 0-.682-.907 2.165 2.165 0 0 0-.893-.447c-.254-.056-.487-.048-.667.027l-.022.008h-.002zm-1.378-1.15c.244-.15.507-.281.794-.392.488-.2 1.051-.23 1.615-.105.54.119 1.09.383 1.566.775.473.387.879.9 1.141 1.525.311.734.42 1.614.202 2.605-.274 1.246-1.1 2.15-2.21 2.8l6.652-.56a.807.807 0 0 1 .903.801v11.461a.806.806 0 0 1-.741.803l-2.486.21v6.666a5.08 5.08 0 0 1 1.213.04c.045.006.091.014.142.023 1.88.326 1.896.681 1.964 2.122.006.137.015.295.035.545.323 3.995 1.564 8.56 2.548 12.174.918 3.375 1.625 5.972 1.124 6.97l-.022.045c-.963 1.73-2.879 3.654-5.183 5.508-2.715 2.185-5.986 4.297-8.847 5.88-.162.818-.56 1.597-1.343 2.598-3.307 4.239-8.595 7.154-14.13 10.209-5.186 2.86-10.595 5.845-14.645 10.1l.073.077c.79.841 1.028 1.69.832 2.556-.178.78-.721 1.51-1.53 2.21l-9.42 8.122.548.803c.862 1.265 1.003 2.417.575 3.494-.396.997-1.282 1.859-2.528 2.633l-20.19 12.548a.806.806 0 1 1-.852-1.368l20.19-12.548c.963-.599 1.63-1.212 1.886-1.856.224-.565.117-1.218-.412-1.993L22.657 79.652c-.422-.638-.98-.888-1.6-.888-.736 0-1.598.31-2.475.754L1.544 88.394a.807.807 0 1 1-.745-1.43l17.046-8.88c1.079-.547 2.179-.93 3.215-.928 1.148.002 2.17.448 2.935 1.594l.218.319 7.059-5.21c.014-.012.028-.022.042-.032.709-.513 1.458-.91 2.213-1.027a2.635 2.635 0 0 1 1.238.08c-.59-6.195 3.299-10.685 7.097-15.069 2.012-2.322 3.997-4.614 5.184-7.065 1.79-3.856 1.773-7.936 1.759-11.817-.004-.922-.008-1.832.012-2.722v-.01c.048-1.459.347-2.472.812-3.132.464-.66 1.074-.982 1.768-1.045.616-.054 1.268.115 1.914.446.194.1.39.214.584.343v-7.564h-1.563a.807.807 0 0 1-.807-.807V12.976c0-.446.361-.807.807-.807h9.504c-1.757-.647-3.156-1.713-3.533-3.413-.219-.991-.11-1.87.201-2.605a3.982 3.982 0 0 1 1.141-1.525 3.806 3.806 0 0 1 1.567-.775c.561-.123 1.124-.095 1.615.105.287.11.551.244.794.391a4.118 4.118 0 0 1 .77-2.221A3.817 3.817 0 0 1 66.686.593c.798-.172 1.596-.049 2.17.359l-.001.002c.062.044.11.08.147.11 1.117.95.947 2.3.816 3.362l-.008.06c-.15 1.207.058 2.294.42 3.259.206.549.464 1.067.739 1.551a10.98 10.98 0 0 0 .739-1.551c.361-.965.57-2.052.42-3.259l-.008-.06c-.134-1.061-.301-2.413.815-3.361a1.984 1.984 0 0 1 .204-.152c.57-.377 1.34-.486 2.11-.32h.004a3.817 3.817 0 0 1 2.294 1.529l.034.05a4.09 4.09 0 0 1 .739 2.173l.002.002zm-6.406 6.507l.15.24c1.165-.847 2.635-2.221 3.614-3.737.914-1.414 1.383-2.936.644-4.156a1.873 1.873 0 0 0-.08-.125l-.026-.037a2.202 2.202 0 0 0-1.319-.89c-.35-.075-.667-.05-.87.077a.295.295 0 0 1-.026.018l-.033.024c-.453.389-.344 1.263-.26 1.949l.009.06c.185 1.496-.07 2.837-.512 4.027-.36.966-.833 1.81-1.293 2.548l.002.002zM64.948 8.49c-.79-1.31-1.511-2.507-2.759-2.992l-.022-.008c-.18-.077-.415-.083-.666-.026a2.165 2.165 0 0 0-.894.446 2.361 2.361 0 0 0-.682.907c-.19.449-.255.999-.113 1.635.245 1.105 1.316 1.832 2.663 2.303 1.45.505 3.187.707 4.664.756-.94-.948-1.582-2.015-2.19-3.02h-.001zm4.879 2.606l.149-.241c-.46-.739-.934-1.583-1.293-2.548-.443-1.19-.697-2.532-.514-4.028l.008-.06c.085-.689.194-1.563-.26-1.95l-.03-.026-.002.002c-.199-.142-.53-.174-.894-.095-.423.09-.86.332-1.194.728a2.187 2.187 0 0 0-.232.322c-.737 1.22-.27 2.743.645 4.157.98 1.518 2.449 2.89 3.615 3.739h.002zm17.517 1.59l-12.386 1.042v9.813l12.386-1.042v-9.813zM84.16 24.44l-9.2.774V35.71l6.936-.508c.215-1.215.703-2.341 1.515-3.128.227-.22.478-.414.751-.576V24.44h-.002zm-20.682.831h-8.032v8.968a10.392 10.392 0 0 1 1.299 1.747v-.113l16.22-.052.333-.024V25.27h-9.822l.002.002zm-10.385-1.66h20.205v-9.819H53.092v9.818zM81.71 36.815l-8.629.632-15.56.05c.683 1.634 1.062 3.455 1.201 5.273.111 1.478.065 2.96-.11 4.339.447-.699.996-1.395 1.621-1.997 1.268-1.22 2.858-2.08 4.602-1.894l.393-.309c2.22-1.753 5.282-4.168 7.841-1.343 1.377 1.52 2.289 3.298 2.914 5.234.508 1.571.827 3.237 1.055 4.95 1.188-1.216 2.769-2.024 4.219-2.763 1.208-.618 2.31-1.181 2.835-1.813-.613-1.188-1.17-2.886-1.585-4.655-.468-1.989-.772-4.105-.799-5.702l.002-.002zM47.463 85.975c4.21-4.396 9.709-7.427 14.982-10.332 5.394-2.973 10.544-5.81 13.647-9.782.65-.834.955-1.43 1.046-2.034.095-.627-.018-1.345-.206-2.362-.289-1.569-.53-2.874-.745-4.207a87.806 87.806 0 0 1-.592-4.317c-.227-1.99-.546-3.923-1.12-5.69-.56-1.724-1.365-3.302-2.577-4.635-1.408-1.55-3.495-.157-5.16 1.13 6.113 2.68 6.893 10.605 7.455 16.336l.01.099a.805.805 0 0 1-1.604.157l-.01-.1c-.55-5.582-1.32-13.414-7.312-15.327-.048-.016-.12-.034-.218-.058a.772.772 0 0 1-.33-.06c-1.23-.152-2.411.51-3.381 1.44a9.66 9.66 0 0 0-1.766 2.337c.445-.115.901-.21 1.364-.274 1.673-.23 3.41-.059 4.948.938a.71.71 0 0 1 .12.097c3.93 3.338 4.393 8.518 4.748 12.53l.033.367a.803.803 0 0 1-.734.87.804.804 0 0 1-.87-.733l-.033-.367c-.331-3.722-.76-8.526-4.18-11.44-1.151-.733-2.5-.852-3.818-.67-.91.125-1.808.393-2.626.707a.69.69 0 0 1-.097.037c-.406.16-.79.327-1.144.494-.529.25.196-.093-.198.09-1.115.523-1.75.822-2.151 2.048-.443 1.351-.32 3.128-.21 4.68l.026.365h-.002c.002.02.002.042.002.062-.008.595.166 1.285.574 1.838.315.425.777.768 1.414.911.06.015.117.033.17.059.985.018 2.163.006 2.42-.601.228-.54.208-1.394.188-2.275-.004-.131-.006-.265-.008-.396l-1.425-.805a.201.201 0 1 1 .198-.35l1.22.69c0-.172.002-.344.01-.515l-1.428-.809a.201.201 0 1 1 .198-.35l1.259.711c.097-1.053.41-2.029 1.327-2.735a.805.805 0 0 1 .984 1.273c-.79.609-.758 1.956-.727 3.245.026 1.055.05 2.08-.313 2.937-.7 1.65-2.623 1.61-4.116 1.58-.244-.005-.472-.01-.668-.005-14.28.355-16.997 6.108-19.546 11.508l-.006.012 10.978 11.67v.01zM36.35 71.036c2.482-4.71 6.252-9.073 17.768-9.777l-.064-.085c-.617-.837-.887-1.866-.887-2.755l-.024-.361c-.12-1.695-.254-3.637.284-5.285.61-1.872 1.464-2.286 2.96-2.988-.053.025-.09.04 0 0 .614-1.902.923-4.415.731-6.93-.171-2.262-.742-4.507-1.85-6.274-.702-1.12-1.73-2.162-2.714-2.667-.385-.197-.744-.302-1.042-.274-.22.02-.421.133-.587.371-.292.416-.483 1.138-.52 2.253-.02.882-.016 1.773-.012 2.675.016 4.059.032 8.325-1.9 12.496l-.007.012c-1.276 2.645-3.332 5.021-5.417 7.43-3.183 3.68-6.436 7.44-6.723 12.163l.004-.004zM77.313 54.01c.137 1.087.277 2.048.43 2.995.21 1.306.45 2.607.738 4.172.082.45.153.85.202 1.22 2.593-1.48 5.436-3.352 7.828-5.277 2.16-1.738 3.935-3.506 4.788-5.038a.354.354 0 0 1 .022-.036c.2-.356-.439-2.703-1.277-5.779-1-3.675-2.265-8.32-2.6-12.476-.014-.18-.024-.4-.034-.595-.018-.406-.025-.505-.626-.61a1.403 1.403 0 0 0-.104-.016c-.987-.147-1.715.111-2.224.606-.551.535-.889 1.356-1.048 2.267-.008.05-.018.102-.026.159-.207 1.383.115 4.023.7 6.503.534 2.265 1.265 4.34 1.98 5.099a4.1 4.1 0 0 0 .722.599c.244.164.509.305.743.424a.807.807 0 1 1-.733 1.439c-.261-.133-.57-.3-.907-.525a5.98 5.98 0 0 1-.84-.672c-.756.737-1.864 1.3-3.057 1.907-1.782.909-3.788 1.93-4.68 3.634h.003z" fill="#30373E"/></svg>