<svg width="93" height="120" fill="none" xmlns="http://www.w3.org/2000/svg"><path d="M57.346 30.829l13.898-15.9c1.137-1.343 1.49-3.261 1.258-5.217a11.07 11.07 0 0 0-1.1-3.63c-.564-1.121-1.308-2.118-2.182-2.863-1.116-.95-2.447-1.484-3.88-1.313-1.07.128-2 .337-2.637.653-.321.16-.547.335-.647.526-.074.144-.072.336.026.584.135.34.424.749.894 1.233 6.54 6.74.251 17.02-5.63 25.927zm.912 10.572a8.173 8.173 0 0 1-.157-.034.807.807 0 0 1-.237-.095 25.74 25.74 0 0 0-6.02-1.14 79.008 79.008 0 0 0-10.611 0c-12.678.876-21.918 10.642-26.068 22.597-1.683 4.85-2.53 10.055-2.43 15.174.1 5.107 1.142 10.126 3.232 14.614 4.653 9.992 14.551 17.379 30.91 17.276 15.836-.099 25.48-7.543 30.032-17.524 2.075-4.55 3.101-9.63 3.18-14.787a44.135 44.135 0 0 0-2.518-15.284c-3.398-9.603-10.104-17.712-19.313-20.797zm.515-1.722c.94.178 1.747.1 2.435-.103.753-.223 1.386-.606 1.903-.974 2.11-1.502 4.082-3.726 5.804-6.173 1.491-2.118 2.79-4.396 3.83-6.522L67.6 21.353l-14.803 17.06c2.09.202 4.083.634 5.977 1.266zm14.72-15.204c.203-.452.392-.893.567-1.32.388-.946.954-1.698 1.616-2.213a3.756 3.756 0 0 1 1.698-.762 3.383 3.383 0 0 1 1.859.22c.648.268 1.268.743 1.812 1.446 1.191 1.542 2.577 3.521 3.165 5.564.466 1.616.447 3.243-.492 4.702a9.752 9.752 0 0 1 2.615.285c2.273.554 4.43 1.864 5.6 3.48.19.262.358.573.498.917.352.862.522 1.944.392 2.966-.138 1.087-.607 2.118-1.538 2.796a3.643 3.643 0 0 1-.763.423l-.407.17a.814.814 0 0 1-.01.13c-1.432 8.883-.44 19.746.492 29.97.154 1.694.309 3.383.347 3.818.135 1.548.204 3.073.21 4.575.042 12.076-4.245 20.923-11.145 26.988-6.87 6.037-16.312 9.286-26.628 10.197-1.944.172-3.946.26-5.993.268a76.284 76.284 0 0 1-6.956-.285c-10.3-.91-19.84-4.023-26.833-9.942-7.028-5.947-11.467-14.698-11.51-26.85a54.47 54.47 0 0 1 .212-4.951c.038-.435.192-2.124.347-3.818.933-10.224 1.924-21.087.492-29.97a.816.816 0 0 1-.01-.099c-.159-.067-.319-.134-.481-.2a3.644 3.644 0 0 1-.763-.424c-.93-.678-1.4-1.709-1.538-2.796a6.074 6.074 0 0 1 .392-2.966c.14-.344.309-.655.499-.917 1.169-1.616 3.326-2.926 5.6-3.48a9.753 9.753 0 0 1 2.614-.285c-.939-1.46-.958-3.086-.492-4.703.588-2.042 1.974-4.02 3.165-5.563.544-.703 1.164-1.178 1.812-1.446a3.384 3.384 0 0 1 1.86-.22c.601.099 1.18.359 1.696.762.663.515 1.229 1.267 1.617 2.214.18.44.377.897.589 1.366l4.805-4.227-3.64-4.287c-1.45-1.713-1.91-4.077-1.628-6.449.169-1.427.608-2.865 1.262-4.165.657-1.308 1.535-2.481 2.576-3.369C24.515.796 26.264.11 28.18.34c1.236.147 2.341.405 3.157.811.626.311 1.1.716 1.367 1.23.119.23.195.471.224.727h4.753A2.833 2.833 0 0 1 40.506.371a2.832 2.832 0 0 1 2.82 2.642l6.589.087A2.833 2.833 0 0 1 52.739.37a2.833 2.833 0 0 1 2.825 2.736h4.753c.03-.256.105-.498.224-.727.267-.514.74-.919 1.367-1.23.816-.406 1.921-.664 3.156-.811 1.917-.23 3.665.457 5.106 1.686 1.041.888 1.919 2.06 2.576 3.37a12.715 12.715 0 0 1 1.262 4.164c.282 2.372-.178 4.736-1.628 6.45h-.001l-.009.01-3.689 4.224 4.811 4.232zM88.374 43.99a38.673 38.673 0 0 0-3.3 1.76c-1.635.977-3.136 2.04-4.648 3.224l-.007.006c-1.542 1.207-4.773 3.737-2.945 8.495.024.063.04.128.048.192.6 1.283 1.14 2.602 1.616 3.95a45.8 45.8 0 0 1 2.606 15.85c-.082 5.38-1.154 10.688-3.324 15.45-4.797 10.525-14.915 18.376-31.49 18.48-17.097.107-27.47-7.683-32.374-18.219-2.189-4.703-3.278-9.948-3.383-15.276-.104-5.316.773-10.718 2.518-15.747a44.066 44.066 0 0 1 1.939-4.7c1.811-4.745-1.412-7.27-2.952-8.475l-.008-.006c-1.512-1.184-3.012-2.247-4.648-3.225a38.659 38.659 0 0 0-3.22-1.722c1.254 8.887.289 19.455-.621 29.42-.08.872-.158 1.73-.341 3.81a53.019 53.019 0 0 0-.212 4.81c.041 11.613 4.264 19.954 10.95 25.606 6.721 5.681 15.952 8.675 25.95 9.558 2.265.199 4.545.292 6.823.285a69.96 69.96 0 0 0 5.86-.268c10.003-.883 19.129-4.004 25.725-9.795 6.566-5.764 10.645-14.205 10.605-25.76a53.017 53.017 0 0 0-.21-4.435c-.183-2.081-.262-2.939-.341-3.81-.912-9.98-1.878-20.564-.616-29.458zM75.413 53.64c.436-3.07 2.76-4.892 4.067-5.918l.007-.005c1.564-1.227 3.115-2.327 4.806-3.339a41.96 41.96 0 0 1 5.654-2.815c.156-.065.298-.145.428-.24.528-.385.8-1.01.885-1.684a4.396 4.396 0 0 0-.284-2.146 2.811 2.811 0 0 0-.315-.58c-.95-1.314-2.749-2.39-4.667-2.857-1.69-.411-3.444-.34-4.735.48-2.691 1.947-5.952 3.789-9.199 5.227-2.678 1.186-5.356 2.102-7.715 2.582 4.5 2.708 8.228 6.648 11.068 11.295zm-12.992-12.81c2.556-.284 5.762-1.3 8.993-2.733 3.558-1.577 7.127-3.652 9.886-5.805 1.647-1.285 1.837-2.898 1.375-4.502-.51-1.776-1.784-3.587-2.882-5.01-.36-.467-.75-.773-1.144-.936a1.788 1.788 0 0 0-.982-.118 2.15 2.15 0 0 0-.967.443c-.443.345-.83.869-1.106 1.544-1.184 2.89-3.02 6.443-5.28 9.638-1.818 2.568-3.916 4.913-6.183 6.519a8.554 8.554 0 0 1-1.71.96zM10.978 51.36a2.803 2.803 0 0 1 2.8 2.808 2.803 2.803 0 0 1-2.8 2.807 2.803 2.803 0 0 1-2.8-2.808 2.803 2.803 0 0 1 2.8-2.807zm.866 1.939a1.22 1.22 0 0 0-1.732 0 1.226 1.226 0 1 0 1.732 1.737c.222-.222.359-.53.359-.869 0-.339-.137-.646-.359-.868zm70.874-1.94a2.803 2.803 0 0 1 2.8 2.808 2.803 2.803 0 0 1-2.8 2.808 2.803 2.803 0 0 1-2.8-2.808 2.803 2.803 0 0 1 2.8-2.807zm.866 1.94a1.22 1.22 0 0 0-1.732 0 1.226 1.226 0 1 0 1.732 1.737c.222-.222.359-.53.359-.869 0-.339-.137-.646-.359-.868zm-47.76-41.071a1.226 1.226 0 0 0-1.225 1.228 1.226 1.226 0 0 0 2.092.869c.221-.222.358-.53.358-.869a1.226 1.226 0 0 0-1.224-1.228zm-2.067-.852a2.787 2.787 0 0 1 1.913-.837l2.78-5.418a2.87 2.87 0 0 1-.34-.439h-5.561c-.23.422-.569.873-1.028 1.353-1.775 1.851-2.433 4.086-2.336 6.544h3.864c.135-.46.382-.872.708-1.203zm3.467-.37a2.838 2.838 0 0 1 1.193 1.573h16.337a2.82 2.82 0 0 1 1.193-1.573L53.344 6.02a2.842 2.842 0 0 1-2.638-.755 2.842 2.842 0 0 1-.39-.487l-7.402-.097a2.832 2.832 0 0 1-3.087 1.339l-2.603 4.985zm1.21 3.152a2.83 2.83 0 0 1-.335.729c2.15 2.662 3.793 5.327 4.896 8.978 1.073 3.556 1.623 8.028 1.615 14.334a99.13 99.13 0 0 1 3.951 0c-.008-6.306.542-10.778 1.615-14.334 1.103-3.65 2.745-6.316 4.896-8.978a2.828 2.828 0 0 1-.336-.729H38.435zm-1.547 1.786a2.793 2.793 0 0 1-3.132-.59 2.85 2.85 0 0 1-.708-1.196H29.35c.892 5.515 4.997 11.916 8.617 17.56 1.526 2.378 2.968 4.627 4.073 6.656.31-.016.63-.031.958-.044.01-6.183-.514-10.535-1.542-13.96-1.023-3.408-2.557-5.916-4.569-8.426zM40.55 2.05a1.226 1.226 0 0 0-1.225 1.228 1.226 1.226 0 0 0 2.091.869c.222-.222.359-.53.359-.869a1.226 1.226 0 0 0-1.225-1.228zM28.826 42.19c-2.367-.479-5.06-1.4-7.751-2.596-3.241-1.44-6.496-3.283-9.182-5.232-1.288-.82-3.04-.892-4.726-.48-1.915.468-3.71 1.545-4.658 2.859-.12.165-.226.362-.315.581a4.412 4.412 0 0 0-.283 2.148c.085.675.356 1.3.884 1.686.129.095.27.175.426.24a41.836 41.836 0 0 1 5.644 2.818c1.688 1.013 3.236 2.114 4.796 3.342l.008.005c1.302 1.025 3.614 2.843 4.056 5.904 2.867-4.637 6.61-8.57 11.1-11.276zm-8.4-16.156c1.04 2.1 2.338 4.349 3.826 6.439 1.73 2.432 3.713 4.643 5.832 6.136.52.366 1.156.746 1.912.968.74.216 1.615.29 2.646.062a27.355 27.355 0 0 1 5.382-1.167L25.572 21.528l-5.145 4.506zm1.33 12.064c3.232 1.433 6.438 2.45 8.994 2.733a8.551 8.551 0 0 1-1.71-.96c-2.267-1.606-4.365-3.951-6.182-6.52-2.261-3.194-4.096-6.748-5.28-9.637-.277-.675-.664-1.198-1.107-1.544a2.15 2.15 0 0 0-.967-.443 1.788 1.788 0 0 0-.982.118c-.393.163-.784.47-1.144.936-1.098 1.423-2.371 3.234-2.882 5.01-.462 1.604-.272 3.217 1.375 4.502 2.759 2.153 6.328 4.228 9.886 5.805zm.347-23.154L35.3 30.478c-5.642-8.83-11.36-18.935-4.923-25.572.47-.485.758-.894.894-1.234.098-.25.1-.441.026-.585-.1-.192-.326-.367-.648-.527-.637-.317-1.567-.526-2.638-.654-1.434-.171-2.767.363-3.883 1.315-.874.745-1.619 1.744-2.183 2.867a11.086 11.086 0 0 0-1.1 3.633c-.233 1.958.12 3.879 1.258 5.223zm28.07 23.237l.418.018c1.183-2.135 2.764-4.503 4.436-7.007 3.675-5.504 7.804-11.688 8.794-17.034h-3.615a2.836 2.836 0 0 1-2.72 2.017c-.41 0-.8-.086-1.152-.242-2.028 2.494-3.575 4.987-4.606 8.374-1.037 3.404-1.566 7.73-1.555 13.874zM57.52 10.54c.752.02 1.431.337 1.928.837.328.33.576.742.712 1.203h3.815c.145-2.458-.488-4.693-2.275-6.544-.463-.48-.804-.93-1.036-1.353h-5.601c-.1.158-.215.305-.342.44l2.8 5.417zm.867 2.049a1.22 1.22 0 0 0-1.733 0c-.221.222-.358.529-.358.868a1.226 1.226 0 0 0 2.09.869 1.226 1.226 0 0 0 0-1.737zM53.663 2.41a1.22 1.22 0 0 0-1.732 0 1.226 1.226 0 1 0 1.732 1.737c.222-.222.359-.53.359-.869 0-.339-.137-.646-.359-.868z" fill="#30373E"/></svg>